:FULLY-SPECIFIED
:FORCE-ALL-JOINTS-BE-3DOF
:DEGREES
1053
root 1.20613 15.1596 32.5519 4.89585 -3.39907 3.45095
lfemur 8.80543 0.464649 5.67679
ltibia -0.0274852 0 0
lfoot -30.3693 -11.1988 2.54162e-05
ltoes -34.2342 0 0
rfemur -31.0566 -15.6552 -6.30889
rtibia 50.0161 -0 0
rfoot -21.8557 5.41142 2.56719e-05
rtoes -40.9461 0 0
lowerback -1.82866 -0.0540371 -0.247978
upperback -0.482745 -0.0342169 -6.04407
thorax 0.526436 -0.0187284 -6.12588
lowerneck -7.0088 0.740752 6.55382
upperneck 1.28381 0.301972 3.66877
head 1.59363 0.277467 0.0547058
lclavicle -3.74852e-15 3.8519e-14 7.19092e-31
lhumerus -58.7099 -46.8663 115.407
lradius 55.8075 -0 0
lwrist 25.5264 0 0
lhand 37.4284 25.3113 -7.79108e-06
lfingers 7.12502 -0 0
lthumb 60.2314 38.8463 -7.44225e-06
rclavicle -3.74852e-15 3.8519e-14 7.19092e-31
rhumerus 2.12997 -23.5147 0.62689
rradius 27.4891 -0 0
rwrist -9.73048 0 0
rhand -30.5146 -42.0224 -3.96047e-05
rfingers 7.12502 -0 0
rthumb -3.81443 -71.9684 -3.78951e-05
1054
root 1.20768 15.16 32.5565 4.89469 -3.38372 3.43627
lfemur 8.82966 0.450779 5.68911
ltibia -0.0494733 0 0
lfoot -30.3706 -11.1828 4.7227e-05
ltoes -34.2573 0 0
rfemur -31.0156 -15.6366 -6.30824
rtibia 49.9986 -0 0
rfoot -21.8507 5.39108 2.48573e-05
rtoes -40.9327 0 0
lowerback -1.84302 -0.0538893 -0.253362
upperback -0.480067 -0.03324 -6.03777
thorax 0.537378 -0.0180467 -6.11612
lowerneck -7.0299 0.72578 6.53816
upperneck 1.30919 0.279697 3.68388
head 1.60526 0.267779 0.0613668
lclavicle -2.4483e-15 2.97655e-14 9.28152e-31
lhumerus -58.7092 -46.8907 115.416
lradius 55.8112 -0 0
lwrist 25.5441 0 0
lhand 37.4377 25.3022 -1.01121e-05
lfingers 7.12502 -0 0
lthumb 60.2394 38.8287 -9.83442e-06
rclavicle -2.4483e-15 2.97655e-14 9.28152e-31
rhumerus 2.09758 -23.5031 0.643953
rradius 27.4868 -0 0
rwrist -9.70782 0 0
rhand -30.5151 -41.9979 -3.95689e-05
rfingers 7.12502 -0 0
rthumb -3.8149 -71.9438 -3.78322e-05
1055
root 1.20926 15.1605 32.561 4.89343 -3.369 3.42134
lfemur 8.8517 0.437576 5.70058
ltibia -0.0659645 0 0
lfoot -30.3751 -11.1654 6.17302e-05
ltoes -34.2802 0 0
rfemur -30.9747 -15.6219 -6.30705
rtibia 49.9804 -0 0
rfoot -21.8473 5.37515 1.82328e-05
rtoes -40.92 0 0
lowerback -1.85712 -0.0535619 -0.258282
upperback -0.477277 -0.0320386 -6.0308
thorax 0.548307 -0.0172514 -6.10592
lowerneck -7.05173 0.710776 6.52062
upperneck 1.3345 0.257479 3.6991
head 1.61698 0.258118 0.0683797
lclavicle -1.09129e-15 1.97602e-14 9.15197e-31
lhumerus -58.707 -46.9156 115.424
lradius 55.8149 -0 0
lwrist 25.5654 0 0
lhand 37.447 25.2926 -1.02292e-05
lfingers 7.12502 -0 0
lthumb 60.2473 38.8106 -1.01086e-05
rclavicle -1.09129e-15 1.97602e-14 9.15197e-31
rhumerus 2.06685 -23.495 0.660926
rradius 27.4839 -0 0
rwrist -9.6838 0 0
rhand -30.5184 -41.9773 -3.06394e-05
rfingers 7.12502 -0 0
rthumb -3.81809 -71.9231 -2.92562e-05
1056
root 1.21088 15.161 32.5656 4.89272 -3.35661 3.40655
lfemur 8.86728 0.426988 5.7093
ltibia -0.068713 0 0
lfoot -30.3862 -11.1467 6.14905e-05
ltoes -34.3014 0 0
rfemur -30.9356 -15.6093 -6.30559
rtibia 49.9618 -0 0
rfoot -21.8448 5.36355 9.22287e-06
rtoes -40.9077 0 0
lowerback -1.87068 -0.053116 -0.263229
upperback -0.474818 -0.0307219 -6.0232
thorax 0.558609 -0.0164132 -6.09502
lowerneck -7.07177 0.696955 6.50288
upperneck 1.35661 0.237223 3.71298
head 1.62738 0.249268 0.0750714
lclavicle 2.19064e-16 9.64366e-15 6.83377e-31
lhumerus -58.7017 -46.9363 115.431
lradius 55.8177 -0 0
lwrist 25.5867 0 0
lhand 37.4561 25.2843 -8.09821e-06
lfingers 7.12502 -0 0
lthumb 60.255 38.794 -8.14159e-06
rclavicle 2.19064e-16 9.64366e-15 6.83377e-31
rhumerus 2.03904 -23.4877 0.677123
rradius 27.4814 -0 0
rwrist -9.65915 0 0
rhand -30.5239 -41.9599 -1.74581e-05
rfingers 7.12502 -0 0
rthumb -3.82341 -71.9055 -1.66227e-05
1057
root 1.21258 15.1614 32.57 4.8932 -3.34823 3.39231
lfemur 8.87214 0.420965 5.71338
ltibia -0.0494733 0 0
lfoot -30.4072 -11.1267 4.16005e-05
ltoes -34.3194 0 0
rfemur -30.9003 -15.5973 -6.30413
rtibia 49.9429 -0 0
rfoot -21.8426 5.35623 1.74674e-06
rtoes -40.8951 0 0
lowerback -1.88345 -0.0526129 -0.268694
upperback -0.473128 -0.0293992 -6.015
thorax 0.567673 -0.0156028 -6.08318
lowerneck -7.08756 0.685538 6.48665
upperneck 1.37244 0.220837 3.72412
head 1.63503 0.242015 0.0807696
lclavicle 1.37932e-15 5.56363e-16 3.2348e-31
lhumerus -58.6918 -46.9481 115.434
lradius 55.8184 -0 0
lwrist 25.6043 0 0
lhand 37.4648 25.2791 -4.30808e-06
lfingers 7.12502 -0 0
lthumb 60.2625 38.781 -4.42707e-06
rclavicle 1.37932e-15 5.56363e-16 3.2348e-31
rhumerus 2.01538 -23.4784 0.691856
rradius 27.4802 -0 0
rwrist -9.63461 0 0
rhand -30.531 -41.9449 -5.34025e-06
rfingers 7.12502 -0 0
rthumb -3.83026 -71.8904 -5.03811e-06
1058
root 1.21436 15.1619 32.5743 4.89549 -3.34555 363.379
lfemur 8.86202 0.421454 5.71093
ltibia 4.77083e-15 0 0
lfoot -30.4413 -11.1055 0
ltoes -34.3328 0 0
rfemur -30.8708 -15.5841 -6.30291
rtibia 49.924 0 0
rfoot -21.8403 5.35313 0
rtoes -40.8819 0 0
lowerback -1.89516 -0.052114 -0.275166
upperback -0.472648 -0.0281795 -6.00623
thorax 0.574884 -0.0148906 -6.07016
lowerneck -7.09659 0.677747 6.4736
upperneck 1.37887 0.210229 3.73109
head 1.63852 0.237143 0.0848023
lclavicle 2.28602e-15 -6.36111e-15 0
lhumerus -58.6755 -46.9462 115.433
lradius 55.8159 0 0
lwrist 25.6146 0 0
lhand 37.4729 25.2791 0
lfingers 7.12502 0 0
lthumb 60.2694 38.7735 0
rclavicle 2.28602e-15 -6.36111e-15 0
rhumerus 1.99712 -23.4643 0.704434
rradius 27.4811 0 0
rwrist -9.61091 0 0
rhand -30.5391 -41.9317 0
rfingers 7.12502 0 0
rthumb -3.83804 -791.877 0
1059
root 1.21626 15.1623 32.5784 4.90003 -3.34954 3.36645
lfemur 8.83465 0.42962 5.7013
ltibia 0.0841262 -0 0
lfoot -30.4908 -11.0826 -4.27434e-05
ltoes -34.3413 0 0
rfemur -30.848 -15.5719 -6.30148
rtibia 49.9049 -0 0
rfoot -21.8382 5.35782 2.00815e-06
rtoes -40.8671 0 0
lowerback -1.90552 -0.0511946 -0.282486
upperback -0.473339 -0.0265091 -5.99632
thorax 0.580176 -0.013998 -6.05542
lowerneck -7.09731 0.673635 6.46357
upperneck 1.37112 0.205902 3.73302
head 1.63601 0.234689 0.0869309
lclavicle 2.87368e-15 -1.18089e-14 -1.58111e-31
lhumerus -58.6487 -46.9265 115.424
lradius 55.8097 -0 0
lwrist 25.6179 0 0
lhand 37.4807 25.2865 4.6148e-06
lfingers 7.12502 -0 0
lthumb 60.2761 38.7738 4.34119e-06
rclavicle 2.87368e-15 -1.18089e-14 -1.58111e-31
rhumerus 1.9837 -23.4464 0.717214
rradius 27.4844 -0 0
rwrist -9.58774 0 0
rhand -30.5492 -41.9221 1.20066e-06
rfingers 7.12502 -0 0
rthumb -3.84784 -71.8672 1.05286e-06
1060
root 1.21826 15.1628 32.5824 4.90641 -3.35902 3.35425
lfemur 8.79306 0.444115 5.68594
ltibia 0.197049 -0 0
lfoot -30.5533 -11.0579 -6.50717e-05
ltoes -34.3462 0 0
rfemur -30.8306 -15.5628 -6.29944
rtibia 49.8853 -0 0
rfoot -21.8369 5.37153 2.86597e-06
rtoes -40.8509 0 0
lowerback -1.91468 -0.0496586 -0.290164
upperback -0.474795 -0.0241063 -5.98505
thorax 0.584071 -0.0127693 -6.039
lowerneck -7.0914 0.672138 6.45501
upperneck 1.35037 0.206328 3.73088
head 1.62815 0.233967 0.0876738
lclavicle 3.21243e-15 -1.70341e-14 -1.73557e-31
lhumerus -58.6115 -46.8919 115.408
lradius 55.8006 -0 0
lwrist 25.6175 0 0
lhand 37.4885 25.3006 8.80391e-06
lfingers 7.12502 -0 0
lthumb 60.2827 38.7807 7.70391e-06
rclavicle 3.21243e-15 -1.70341e-14 -1.73557e-31
rhumerus 1.97383 -23.4273 0.731595
rradius 27.4893 -0 0
rwrist -9.56434 0 0
rhand -30.5624 -41.9174 3.82303e-06
rfingers 7.12502 -0 0
rthumb -3.86054 -71.8623 3.50878e-06
1061
root 1.22033 15.1632 32.5863 4.91397 -3.37246 3.34244
lfemur 8.74094 0.463113 5.66612
ltibia 0.331601 -0 0
lfoot -30.6257 -11.0316 -6.71234e-05
ltoes -34.3481 0 0
rfemur -30.8168 -15.5554 -6.29719
rtibia 49.8653 -0 0
rfoot -21.8363 5.39072 2.79943e-06
rtoes -40.8343 0 0
lowerback -1.923 -0.0479102 -0.298197
upperback -0.47691 -0.0214878 -5.97298
thorax 0.586841 -0.0114586 -6.02152
lowerneck -7.08127 0.672799 6.4475
upperneck 1.32242 0.21037 3.72602
head 1.61725 0.234681 0.0874945
lclavicle 3.40223e-15 -2.17168e-14 -8.5442e-32
lhumerus -58.5685 -46.848 115.387
lradius 55.7896 -0 0
lwrist 25.6145 0 0
lhand 37.496 25.3182 1.10052e-05
lfingers 7.12502 -0 0
lthumb 60.2891 38.7914 9.11345e-06
rclavicle 3.40223e-15 -2.17168e-14 -8.5442e-32
rhumerus 1.96766 -23.4071 0.745452
rradius 27.4954 -0 0
rwrist -9.54078 0 0
rhand -30.5776 -41.916 6.22827e-06
rfingers 7.12502 -0 0
rthumb -3.87526 -71.8605 5.80098e-06
1062
root 1.22244 15.1636 32.5902 4.92209 -3.38833 3.33107
lfemur 8.68198 0.48479 5.64314
ltibia 0.480613 -0 0
lfoot -30.7048 -11.0044 -5.2244e-05
ltoes -34.3479 0 0
rfemur -30.8052 -15.5479 -6.29511
rtibia 49.8452 -0 0
rfoot -21.8361 5.41185 2.20991e-06
rtoes -40.8184 0 0
lowerback -1.93086 -0.0463536 -0.306582
upperback -0.479576 -0.0191705 -5.96067
thorax 0.588757 -0.0103203 -6.0036
lowerneck -7.0693 0.675161 6.44066
upperneck 1.2931 0.216891 3.7198
head 1.60562 0.236532 0.0868565
lclavicle 3.54306e-15 -2.55372e-14 4.91221e-32
lhumerus -58.5247 -46.8005 115.366
lradius 55.7774 -0 0
lwrist 25.6095 0 0
lhand 37.5031 25.3364 1.06079e-05
lfingers 7.12502 -0 0
lthumb 60.2951 38.8032 8.33066e-06
rclavicle 3.54306e-15 -2.55372e-14 4.91221e-32
rhumerus 1.96531 -23.3858 0.756661
rradius 27.5021 -0 0
rwrist -9.51713 0 0
rhand -30.5941 -41.9161 7.11789e-06
rfingers 7.12502 -0 0
rthumb -3.89113 -71.8604 6.68062e-06
1063
root 1.22457 15.1641 32.594 4.93012 -3.40509 3.32017
lfemur 8.61985 0.507325 5.61827
ltibia 0.63692 -0 0
lfoot -30.7872 -10.9767 -2.76654e-05
ltoes -34.3463 0 0
rfemur -30.7939 -15.539 -6.29358
rtibia 49.8249 -0 0
rfoot -21.8361 5.43137 1.43711e-06
rtoes -40.8042 0 0
lowerback -1.93865 -0.0453931 -0.315315
upperback -0.482687 -0.0176713 -5.9487
thorax 0.590091 -0.00960865 -5.98585
lowerneck -7.0579 0.678766 6.43409
upperneck 1.26823 0.224759 3.71356
head 1.59556 0.239225 0.0862232
lclavicle 3.73489e-15 -2.81753e-14 1.5838e-31
lhumerus -58.4846 -46.7551 115.349
lradius 55.7649 -0 0
lwrist 25.6034 0 0
lhand 37.5095 25.3521 7.89101e-06
lfingers 7.12502 -0 0
lthumb 60.3006 38.813 5.80856e-06
rclavicle 3.73489e-15 -2.81753e-14 1.5838e-31
rhumerus 1.96693 -23.3637 0.763099
rradius 27.5089 -0 0
rwrist -9.49346 0 0
rhand -30.6108 -41.9162 5.96413e-06
rfingers 7.12502 -0 0
rthumb -3.90725 -71.8602 5.62864e-06
1064
root 1.22668 15.1645 32.5979 4.93741 -3.4212 3.3098
lfemur 8.55827 0.528904 5.5928
ltibia 0.793352 -0 0
lfoot -30.8697 -10.9489 -4.92146e-06
ltoes -34.344 0 0
rfemur -30.7814 -15.527 -6.29299
rtibia 49.8047 -0 0
rfoot -21.8359 5.44574 6.69189e-07
rtoes -40.7929 0 0
lowerback -1.94675 -0.0454332 -0.324393
upperback -0.486136 -0.0175071 -5.93763
thorax 0.591113 -0.00957818 -5.96889
lowerneck -7.04945 0.683156 6.4274
upperneck 1.25362 0.23284 3.70865
head 1.58939 0.242462 0.0860586
lclavicle 4.07769e-15 -2.93112e-14 1.64879e-31
lhumerus -58.4531 -46.7176 115.339
lradius 55.753 -0 0
lwrist 25.5972 0 0
lhand 37.515 25.3623 3.86266e-06
lfingers 7.12502 -0 0
lthumb 60.3053 38.818 2.56905e-06
rclavicle 4.07769e-15 -2.93112e-14 1.64879e-31
rhumerus 1.97266 -23.3407 0.762644
rradius 27.5155 -0 0
rwrist -9.46983 0 0
rhand -30.6268 -41.9146 3.17583e-06
rfingers 7.12502 -0 0
rthumb -3.92275 -71.8583 3.01422e-06
1065
root 1.22874 15.1649 32.6018 4.94333 -3.43513 363.3
lfemur 8.50091 0.547717 5.56804
ltibia 0.942742 0 0
lfoot -30.9491 -10.9215 0
ltoes -34.3419 0 0
rfemur -30.766 -15.5104 -6.29371
rtibia 49.7846 0 0
rfoot -21.8355 5.45141 0
rtoes -40.7854 0 0
lowerback -1.95553 -0.0468785 -0.333812
upperback -0.489817 -0.0191952 -5.92803
thorax 0.592095 -0.0104835 -5.95335
lowerneck -7.04635 0.687874 6.42019
upperneck 1.2551 0.240005 3.70644
head 1.5894 0.245947 0.0868269
lclavicle 4.67144e-15 -2.8625e-14 0
lhumerus -58.4348 -46.6938 115.34
lradius 55.7426 0 0
lwrist 25.5915 0 0
lhand 37.5196 25.3639 0
lfingers 7.12502 0 0
lthumb 60.3092 38.8155 0
rclavicle 4.67144e-15 -2.8625e-14 0
rhumerus 1.98261 -23.3169 0.753177
rradius 27.5212 0 0
rwrist -9.44631 0 0
rhand -30.6413 -41.9096 0
rfingers 7.12502 0 0
rthumb -3.93674 -791.853 0
